<svg width="462" height="453" viewBox="0 0 462 453" fill="none" xmlns="http://www.w3.org/2000/svg">
    <path
        d="M164.713 35.9452C188.469 27.299 215.408 40.9068 226.225 66.4799L226.294 66.4391L275.983 198.937L215.254 221.041L147.394 118.199C143.577 113.434 140.425 107.914 138.186 101.764C128.217 74.3739 140.094 44.9058 164.713 35.9452Z"
        fill="#262157" />
    <path
        d="M240.543 103.579C199.31 48.5858 148.309 109.475 162.927 141.597L180.794 168.712C180.794 168.712 196.85 88.0597 251.634 134.051L240.543 103.579Z"
        fill="#DE7229" />
    <path
        d="M63.3608 104.127C79.6109 84.761 109.744 83.0763 131.899 99.8149L131.938 99.7449L241.219 189.647L199.678 239.154L89.4891 184.021C83.8006 181.803 78.3106 178.598 73.297 174.391C50.9686 155.655 46.5202 124.197 63.3608 104.127Z"
        fill="#262157" />
    <path
        d="M162.848 124.784C99.6428 97.7755 85.9192 176.007 114.64 196.517L143.671 211.066C143.671 211.066 117.25 133.191 187.689 145.629L162.848 124.784Z"
        fill="#DE7229" />
    <path
        d="M11.5885 218.756C15.9786 193.86 41.2327 177.334 68.7881 180.753L68.7874 180.673L208.378 203.89L197.156 267.534L74.1631 274.882C68.1278 275.806 61.7709 275.775 55.3255 274.639C26.6207 269.577 7.03904 244.558 11.5885 218.756Z"
        fill="#262157" />
    <path
        d="M108.076 186.903C39.8341 195.115 67.065 269.728 102.192 273.129L134.608 271.213C134.608 271.213 72.7895 216.982 140.011 192.534L108.076 186.903Z"
        fill="#DE7229" />
    <path
        d="M8.47623 327.498C4.08657 302.601 22.1655 278.435 49.2284 272.223L49.2003 272.148L188.314 246.222L199.536 309.866L86.4733 358.837C81.1178 361.769 75.1338 363.914 68.6884 365.051C39.9836 370.112 13.0257 353.299 8.47623 327.498Z"
        fill="#262157" />
    <path
        d="M88.2503 264.564C26.9325 295.621 78.0402 356.421 112.212 347.603L142.018 334.716C142.018 334.716 65.3796 304.898 120.185 258.933L88.2503 264.564Z"
        fill="#DE7229" />
    <path
        d="M276.659 0C301.939 0.000241237 322.599 22.001 324.017 49.7314L324.096 49.7168L325.471 191.219H260.845L232.252 71.3701C230.294 65.5868 229.22 59.3212 229.22 52.7764C229.22 23.6288 250.459 0 276.659 0Z"
        fill="#262157" />
    <path
        d="M324.783 89.4904C304.846 23.7111 236.095 63.4847 238.845 98.669L246.361 130.26C246.361 130.26 289.033 59.9632 324.783 121.918V89.4904Z"
        fill="#DE7229" />
    <circle cx="282.479" cy="263.728" r="118.71" fill="#333274" />
    <circle cx="324.83" cy="300.945" r="131.543" fill="#333274" />
    <circle cx="419.156" cy="150.152" r="14.1168" fill="#CF9426" />
    <mask id="mask0_99_47" style="mask-type:alpha" maskUnits="userSpaceOnUse" x="405" y="88"
        width="57" height="58">
        <circle cx="433.273" cy="116.785" r="28.2337" transform="rotate(-180 433.273 116.785)"
            fill="#CF9426" />
    </mask>
    <g mask="url(#mask0_99_47)">
        <rect x="461.506" y="116.785" width="56.4673" height="56.4673"
            transform="rotate(-180 461.506 116.785)" fill="#CF9426" />
    </g>
    <rect x="405.039" y="114.218" width="28.2337" height="37.2171" fill="#CF9426" />
    <circle cx="385.147" cy="90.4761" r="46.8422" fill="#252157" />
    <circle cx="397.339" cy="85.9843" r="10.2668" fill="#CF9426" />
    <path
        d="M338.305 216.886V87.2677C365.683 95.8234 418.514 116.143 410.814 128.977C403.114 141.81 406.322 154.002 408.889 158.494C433.529 189.807 446.534 241.27 449.956 263.086C444.181 272.712 394.131 292.603 367.18 269.503C345.62 251.023 338.947 226.725 338.305 216.886Z"
        fill="#252157" />
    <path
        d="M274.779 236.183L138.103 374.784C164.411 404.301 244.492 455.635 354.347 424.835C446.106 352.326 375.522 162.39 274.779 236.183Z"
        fill="#252257" />
    <path
        d="M215.103 422.221L326.263 305.437L359.681 338.723L265.796 433.13C265.796 433.13 243.337 432.488 215.103 422.221Z"
        fill="#E3732B" />
    <path
        d="M137.441 374.737L274.417 236.136L307.835 269.422L170.808 401.688C170.808 401.688 153.482 392.063 137.441 374.737Z"
        fill="#E3732B" />
    <circle cx="317.13" cy="286.828" r="67.3758" fill="#CC9729" />
    <circle cx="317.771" cy="287.47" r="39.7838" fill="#26215A" />
</svg>
